<svg xmlns="http://www.w3.org/2000/svg" width="1366" height="768" viewBox="0 0 1366 768">
  <defs>
    <radialGradient id="moonglow" cx="50%" cy="50%" r="50%"><stop offset="0" stop-color="#fff3cf" stop-opacity=".32"/><stop offset="1" stop-color="#fff3cf" stop-opacity="0"/></radialGradient>
    <path id="spark" d="M0 -6 L1.3 -1.3 L6 0 L1.3 1.3 L0 6 L-1.3 1.3 L-6 0 L-1.3 -1.3 Z"/>
  </defs>
  <g fill="#f4ecdc">
    <circle cx="700" cy="70" r="1.2" opacity=".7"/><circle cx="752" cy="128" r="1" opacity=".5"/><circle cx="1060" cy="190" r="1.3" opacity=".7"/><circle cx="866" cy="96" r=".9" opacity=".5"/>
    <circle cx="958" cy="58" r="1.1" opacity=".6"/><circle cx="1012" cy="150" r="1.4" opacity=".7"/><circle cx="1090" cy="36" r="1" opacity=".5"/><circle cx="1280" cy="226" r="1.2" opacity=".6"/>
    <circle cx="1330" cy="140" r="1" opacity=".5"/><circle cx="640" cy="200" r="1" opacity=".4"/><circle cx="1110" cy="270" r="1" opacity=".45"/><circle cx="590" cy="96" r="1.1" opacity=".5"/>
    <circle cx="470" cy="80" r="1" opacity=".4"/><circle cx="36" cy="120" r="1" opacity=".5"/><circle cx="1330" cy="330" r="1.1" opacity=".45"/><circle cx="1190" cy="310" r=".9" opacity=".4"/>
    <circle cx="760" cy="320" r="1" opacity=".35"/><circle cx="1010" cy="380" r="1.2" opacity=".4"/><circle cx="700" cy="400" r="1" opacity=".3"/><circle cx="620" cy="330" r="1.2" opacity=".42"/>
    <circle cx="1240" cy="390" r="1" opacity=".35"/><circle cx="780" cy="210" r="1.1" opacity=".55"/><circle cx="330" cy="40" r="1" opacity=".45"/><circle cx="200" cy="74" r=".9" opacity=".4"/>
    <circle cx="1180" cy="30" r="1.1" opacity=".5"/><circle cx="1250" cy="60" r=".8" opacity=".4"/>
  </g>
  <use href="#spark" x="1060" y="190" fill="#fff6dd" opacity=".85"/><use href="#spark" x="780" y="210" fill="#fff6dd" opacity=".7"/>
  <circle cx="1214" cy="128" r="96" fill="url(#moonglow)"/>
  <path d="M1234 90 a41 41 0 1 0 22 74 a33 33 0 1 1 -22 -74 z" fill="#fff1c9" opacity=".94"/>
  <g opacity=".6" stroke="#86f3cb" stroke-width="1.3" fill="none" stroke-linecap="round">
    <path d="M910 170 L916 214 L910 262 M916 222 L880 250 L856 276 M916 222 L956 242 L982 224 M910 262 L890 310 L878 356 M910 262 L934 306 L956 350"/>
    <circle cx="910" cy="158" r="12" stroke-dasharray="3 4"/>
  </g>
  <g fill="#c8fbe6"><circle cx="916" cy="214" r="2.6"/><circle cx="910" cy="262" r="3"/><circle cx="880" cy="250" r="2.2"/><circle cx="856" cy="276" r="2.6"/><circle cx="956" cy="242" r="2.2"/>
    <circle cx="982" cy="224" r="2.6"/><circle cx="890" cy="310" r="2.2"/><circle cx="878" cy="356" r="2.8"/><circle cx="934" cy="306" r="2.2"/><circle cx="956" cy="350" r="2.8"/></g>
  <use href="#spark" x="878" y="356" fill="#e8fff6"/><use href="#spark" x="982" y="224" fill="#e8fff6"/>
</svg>
